# xmcd
#
# Track frame offsets: 
#        150
#        13517
#        26691
#        40204
#        52646
#        64547
#        77021
#        90810
#        103718
#        117098
#        130217
#        144503
#        156717
#        166939
#        178286
#        187950
#        203398
#        216548
#        230579
#        243778
#        258025
#        271683
#        283539
#        297110
#        307249
#        316742
#        328084
#        340014
#
# Disc length: 4672 seconds
#
# Revision: 0
# Processed by: cddbd v1.5.2PL0 Copyright (c) Steve Scherf et al.
# Submitted via: ExactAudioCopy v0.99pb5
#
DISCID=7e123e1c
DTITLE=T-Bone Walker - The Great Blues Vocals and Guitar
DYEAR=2016
DGENRE=Blues
TTITLE0=T-Bone Shuffle
TTITLE1=I'm Still In Love With You
TTITLE2=Call It Stormy Monday
TTITLE3=I Want A Little Girl
TTITLE4=Bobby Sox Blues
TTITLE5=West Side Baby
TTITLE6=Go Back To The One You Love
TTITLE7=I Wish You Were Mine
TTITLE8=Wise Man Blues
TTITLE9=You're My Best Poker Hand
TTITLE10=Born To Be No Good
TTITLE11=T-Bone Jumps Again
TTITLE12=I Walked Away
TTITLE13=No Reason
TTITLE14=Look Me In The Eyes
TTITLE15=Too Lazy
TTITLE16=My Baby Left Me Blues
TTITLE17=Come Back To Me Baby
TTITLE18=She Is Going To Ruin Me (aka Fast Woman)
TTITLE19=I Can't Stand Being Away From You
TTITLE20=Long Distance Blues
TTITLE21=My Baby Is Now On My Mind
TTITLE22=Doin' Time
TTITLE23=I'll Always Be In Love With You
TTITLE24=Hard Way
TTITLE25=Strugglin' Blues
TTITLE26=Alimony Blues
TTITLE27=News For My Baby
EXTD=
EXTT0=
EXTT1=
EXTT2=
EXTT3=
EXTT4=
EXTT5=
EXTT6=
EXTT7=
EXTT8=
EXTT9=
EXTT10=
EXTT11=
EXTT12=
EXTT13=
EXTT14=
EXTT15=
EXTT16=
EXTT17=
EXTT18=
EXTT19=
EXTT20=
EXTT21=
EXTT22=
EXTT23=
EXTT24=
EXTT25=
EXTT26=
EXTT27=
PLAYORDER=
